<svg width="62" height="62" viewBox="0 0 62 62" fill="none" xmlns="http://www.w3.org/2000/svg">
<g id="circleElement">
<circle id="Ellipse 1" cx="1.56072" cy="1.56072" r="1.56072" fill="#0CAEA5"/>
<circle id="Ellipse 6" cx="16.2804" cy="1.56072" r="1.56072" fill="#0CAEA5"/>
<circle id="Ellipse 11" cx="31.0002" cy="1.56072" r="1.56072" fill="#0CAEA5"/>
<circle id="Ellipse 16" cx="45.7194" cy="1.56072" r="1.56072" fill="#0CAEA5"/>
<circle id="Ellipse 21" cx="60.4391" cy="1.56072" r="1.56072" fill="#0CAEA5"/>
<circle id="Ellipse 2" cx="1.56072" cy="16.2804" r="1.56072" fill="#0CAEA5"/>
<circle id="Ellipse 7" cx="16.2804" cy="16.2804" r="1.56072" fill="#0CAEA5"/>
<circle id="Ellipse 12" cx="31.0002" cy="16.2804" r="1.56072" fill="#0CAEA5"/>
<circle id="Ellipse 17" cx="45.7194" cy="16.2804" r="1.56072" fill="#0CAEA5"/>
<circle id="Ellipse 22" cx="60.4391" cy="16.2804" r="1.56072" fill="#0CAEA5"/>
<circle id="Ellipse 3" cx="1.56072" cy="30.9999" r="1.56072" fill="#0CAEA5"/>
<circle id="Ellipse 8" cx="16.2804" cy="30.9999" r="1.56072" fill="#0CAEA5"/>
<circle id="Ellipse 13" cx="31.0002" cy="30.9999" r="1.56072" fill="#0CAEA5"/>
<circle id="Ellipse 18" cx="45.7194" cy="30.9999" r="1.56072" fill="#0CAEA5"/>
<circle id="Ellipse 23" cx="60.4391" cy="30.9999" r="1.56072" fill="#0CAEA5"/>
<circle id="Ellipse 4" cx="1.56072" cy="45.7197" r="1.56072" fill="#0CAEA5"/>
<circle id="Ellipse 9" cx="16.2804" cy="45.7197" r="1.56072" fill="#0CAEA5"/>
<circle id="Ellipse 14" cx="31.0002" cy="45.7197" r="1.56072" fill="#0CAEA5"/>
<circle id="Ellipse 19" cx="45.7194" cy="45.7197" r="1.56072" fill="#0CAEA5"/>
<circle id="Ellipse 24" cx="60.4391" cy="45.7197" r="1.56072" fill="#0CAEA5"/>
<circle id="Ellipse 5" cx="1.56072" cy="60.4391" r="1.56072" fill="#0CAEA5"/>
<circle id="Ellipse 10" cx="16.2804" cy="60.4391" r="1.56072" fill="#0CAEA5"/>
<circle id="Ellipse 15" cx="31.0002" cy="60.4391" r="1.56072" fill="#0CAEA5"/>
<circle id="Ellipse 20" cx="45.7194" cy="60.4391" r="1.56072" fill="#0CAEA5"/>
<circle id="Ellipse 25" cx="60.4391" cy="60.4391" r="1.56072" fill="#0CAEA5"/>
</g>
</svg>
